<?xml version="1.0" standalone="no"?>
<!DOCTYPE svg PUBLIC "-//W3C//DTD SVG 20010904//EN"
 "http://www.w3.org/TR/2001/REC-SVG-20010904/DTD/svg10.dtd">
<svg version="1.0" xmlns="http://www.w3.org/2000/svg"
 width="312.000000pt" height="312.000000pt" viewBox="0 0 312.000000 312.000000"
 preserveAspectRatio="xMidYMid meet">
<metadata>
Created by potrace 1.11, written by Peter Selinger 2001-2013
</metadata>
<g transform="translate(0.000000,312.000000) scale(0.100000,-0.100000)"
fill="#000000" stroke="none">
<path d="M2191 1864 c-1 -8 -31 -12 -88 -12 -49 -1 -105 -1 -125 -1 -36 -1
-83 -34 -73 -51 3 -4 -20 5 -50 21 -31 16 -57 29 -60 29 -3 0 -8 0 -12 1 -5 0
-37 0 -73 -1 -78 -1 -124 -14 -168 -47 l-33 -24 -10 30 c-6 17 -15 31 -21 31
-5 0 -7 3 -5 8 3 4 -11 6 -31 5 -21 -1 -55 -2 -78 -2 -59 -1 -73 -16 -76 -83
-2 -32 -6 -58 -10 -58 -7 0 -9 5 -8 25 0 3 -9 15 -20 27 -11 12 -18 28 -15 36
2 7 0 10 -5 7 -6 -3 -13 2 -17 12 -10 29 -23 33 -104 33 -60 0 -79 -4 -91 -17
-17 -20 -17 -24 -20 -135 -1 -42 -5 -75 -9 -72 -5 2 -6 11 -2 19 3 8 0 15 -7
15 -7 0 -10 7 -6 15 3 8 0 15 -7 15 -8 0 -6 4 3 10 13 8 12 10 -2 10 -17 0
-23 16 -19 48 1 6 -4 12 -11 12 -9 0 -9 3 2 10 13 8 12 10 -2 10 -10 0 -18 4
-18 9 0 5 -3 17 -7 27 -5 13 -3 15 7 9 8 -5 11 -4 7 2 -7 11 -197 17 -213 6
-16 -11 -40 -62 -48 -100 -4 -17 -13 -37 -21 -43 -7 -6 -11 -20 -7 -33 3 -12
1 -19 -3 -15 -13 12 -14 68 -1 61 6 -3 5 0 -1 8 -18 19 -16 29 4 23 16 -5 16
-4 2 5 -10 6 -15 23 -14 45 1 20 -2 33 -6 30 -5 -3 -9 1 -9 9 0 22 -162 24
-184 2 -14 -15 -21 -62 -17 -120 l2 -20 -12 20 c-7 11 -16 23 -21 26 -5 3 -10
18 -12 32 -1 15 -6 30 -11 35 -4 4 -5 1 -1 -5 4 -7 2 -13 -3 -13 -6 0 -11 6
-11 14 0 34 -30 46 -109 46 -83 0 -107 -12 -109 -55 -4 -80 -1 -496 4 -509 6
-15 28 -26 49 -25 5 0 12 -8 16 -18 7 -17 8 -17 8 0 1 14 5 16 20 7 25 -13 41
-13 21 0 -11 7 -7 9 15 7 17 -2 36 -7 43 -11 8 -5 11 -2 10 6 -2 7 2 12 8 11
7 -1 11 5 10 15 -1 11 6 16 19 15 18 -1 19 -1 3 11 -14 10 -15 15 -5 26 7 7 7
10 1 7 -7 -4 -11 7 -10 33 1 29 4 36 13 28 7 -6 10 -14 7 -19 -3 -5 0 -9 6 -9
6 0 8 -4 5 -10 -3 -5 -2 -10 4 -10 5 0 12 -8 15 -17 3 -10 17 -30 30 -44 14
-15 22 -29 19 -32 -3 -3 6 -3 19 0 21 6 22 5 8 -13 -14 -17 -13 -18 1 -7 9 7
20 9 24 5 5 -4 5 -1 1 6 -9 15 -5 15 29 2 18 -7 24 -7 20 1 -9 13 27 8 37 -6
5 -6 8 -6 8 2 0 15 45 10 67 -8 16 -12 17 -12 5 2 -11 15 -8 16 20 15 19 -1
40 -6 47 -10 10 -6 12 -5 7 2 -4 7 -3 12 2 12 10 0 25 38 23 54 -1 5 6 3 15
-5 16 -13 16 -12 6 7 -10 19 -8 21 18 19 16 -1 27 2 24 7 -4 5 -12 7 -20 4 -7
-3 -16 -1 -19 3 -5 9 61 8 70 -1 3 -2 6 -16 7 -29 2 -20 48 -82 48 -64 0 3 10
1 21 -6 15 -8 19 -8 15 0 -10 16 6 13 34 -6 24 -16 24 -16 11 0 -18 22 -3 22
23 0 19 -16 19 -16 7 -1 -12 16 -10 17 18 13 17 -2 36 -7 42 -11 8 -5 9 -3 4
6 -6 10 -4 12 8 7 10 -4 25 -10 35 -13 14 -5 15 -4 2 5 -12 9 -9 10 15 8 17
-2 36 -7 43 -11 8 -5 11 -2 10 6 -2 7 4 12 14 12 12 -1 15 5 12 23 -3 18 -1
23 8 17 10 -5 11 -4 0 7 -18 19 -15 39 6 33 14 -5 15 -4 2 5 -17 11 -25 65 -9
55 6 -3 8 -12 5 -20 -3 -8 1 -14 8 -14 7 0 18 -12 25 -27 7 -16 12 -28 10 -28
-2 0 10 -14 26 -31 17 -17 33 -29 37 -27 4 2 17 -1 29 -8 15 -8 19 -8 15 0
-12 19 12 12 24 -6 11 -17 11 -17 6 0 -5 15 -3 16 15 6 15 -8 19 -8 15 0 -12
19 12 12 24 -6 11 -17 11 -17 6 -1 -3 10 -1 20 4 23 6 4 10 0 11 -7 1 -23 18
26 18 55 l1 28 27 -26 c15 -14 34 -25 41 -25 8 0 12 -6 9 -13 -4 -10 2 -13 20
-9 20 4 24 2 18 -9 -8 -12 -6 -12 8 0 16 12 22 8 18 -12 -1 -5 4 -5 11 -1 7 4
27 9 46 11 25 3 32 1 26 -9 -6 -10 -5 -10 7 -2 8 6 22 10 31 9 10 -2 20 1 24
6 3 5 11 9 17 9 7 0 6 -4 -3 -10 -8 -5 -10 -10 -5 -10 6 0 21 9 35 20 29 23
46 25 54 8 3 -7 4 -4 3 6 -1 10 4 21 11 23 6 3 12 -1 12 -9 0 -29 34 -43 105
-43 39 0 73 -4 77 -10 5 -6 8 -6 8 1 0 7 16 10 42 9 24 -2 53 1 65 6 18 7 23
5 23 -8 0 -15 1 -15 13 -2 6 8 25 21 40 27 25 11 29 10 37 -11 5 -12 9 -16 9
-8 1 10 5 11 14 3 6 -6 17 -12 22 -14 6 -1 9 -7 7 -11 -1 -5 2 -6 8 -2 6 3 8
11 4 17 -10 16 39 5 54 -12 10 -13 11 -12 5 5 -6 17 -5 18 9 7 12 -10 18 -9
28 3 8 10 17 12 24 6 8 -6 11 0 12 22 1 17 10 37 20 45 17 13 17 14 2 9 -12
-4 -18 -1 -18 9 0 8 4 13 8 10 5 -3 9 1 9 9 0 8 -4 12 -8 9 -4 -2 -10 0 -13 5
-8 12 7 22 19 13 13 -9 34 -42 41 -64 6 -16 24 -22 61 -21 7 1 10 -3 7 -8 -3
-5 -1 -9 5 -9 5 0 12 6 14 13 4 9 6 8 6 -2 1 -11 4 -11 18 0 14 12 16 12 9 -1
-4 -8 -1 -7 8 4 9 11 20 15 28 10 10 -6 10 -4 -1 9 -9 12 -10 17 -2 17 7 0 9
5 5 12 -5 7 -3 8 6 3 10 -6 12 -4 7 8 -3 8 0 20 7 26 9 7 12 3 14 -20 1 -18
-3 -29 -10 -29 -10 0 -10 -2 0 -8 7 -5 14 -22 15 -39 1 -22 6 -29 16 -25 9 4
12 1 7 -7 -5 -8 -3 -11 5 -10 8 2 25 -2 39 -9 23 -12 24 -12 6 2 -18 14 -16
15 20 13 21 -1 42 -6 46 -12 5 -6 8 -5 8 3 0 7 5 10 10 7 6 -4 17 -1 25 5 8 7
15 9 15 5 0 -4 7 -2 15 5 8 7 12 17 8 23 -12 20 -13 58 -1 51 7 -5 8 -2 3 7
-14 21 -15 60 -3 53 7 -4 8 -2 4 5 -4 6 -9 25 -11 42 -4 28 -3 30 13 18 15
-12 15 -12 0 7 -23 26 -23 41 -1 23 16 -13 16 -13 0 11 -19 27 -22 44 -7 35 7
-4 7 3 0 20 -13 35 -13 54 1 35 9 -12 10 -11 4 5 -4 11 -10 26 -13 34 -4 10
-1 12 7 6 10 -6 11 -3 2 13 -14 27 -14 35 1 26 7 -5 8 -3 2 7 -14 23 -11 83 5
103 9 11 11 16 4 13 -6 -4 -20 4 -30 19 -18 24 -26 26 -85 26 -36 0 -74 -2
-84 -6 -17 -5 -124 -169 -132 -202 -6 -23 -31 -23 -46 1 -9 13 -16 28 -16 33
0 5 -7 15 -15 22 -9 8 -13 21 -10 34 5 15 3 17 -3 8 -7 -10 -15 0 -33 37 -13
28 -32 53 -41 57 -10 3 -18 8 -18 12 0 14 -141 4 -158 -11 -15 -13 -22 -14
-57 -1 -22 7 -47 14 -57 14 -9 0 -19 6 -21 13 -4 7 -6 8 -6 1z m-451 -226 c0
-5 4 -7 8 -4 11 7 30 -29 36 -67 3 -15 -2 -42 -9 -60 -8 -18 -14 -28 -15 -22
0 5 -7 -1 -16 -13 -15 -22 -44 -30 -44 -12 0 6 -7 10 -15 10 -8 0 -15 9 -15
21 0 11 -4 17 -10 14 -5 -3 -10 -2 -10 4 0 5 4 13 10 16 6 4 3 16 -8 33 -9 14
-12 23 -5 19 6 -4 14 -3 18 3 3 5 1 10 -4 10 -6 0 -11 5 -11 11 0 5 5 7 12 3
7 -5 9 -2 6 8 -8 20 25 41 41 25 9 -9 11 -8 5 6 -5 13 -2 16 10 11 9 -3 16
-10 16 -16z m396 13 c-3 -5 1 -11 9 -14 10 -4 12 -1 8 11 -5 14 -4 15 8 4 10
-9 15 -40 16 -97 1 -85 -3 -98 -37 -100 -13 -1 -15 15 -14 99 2 110 2 106 10
106 3 0 3 -4 0 -9z m854 -365 c0 -3 -4 -8 -10 -11 -5 -3 -10 -1 -10 4 0 6 5
11 10 11 6 0 10 -2 10 -4z"/>
<path d="M1510 1300 c0 -5 5 -10 10 -10 6 0 10 5 10 10 0 6 -4 10 -10 10 -5 0
-10 -4 -10 -10z"/>
<path d="M596 1242 c-3 -5 1 -9 9 -9 8 0 12 4 9 9 -3 4 -7 8 -9 8 -2 0 -6 -4
-9 -8z"/>
<path d="M1975 1240 c3 -5 8 -10 11 -10 2 0 4 5 4 10 0 6 -5 10 -11 10 -5 0
-7 -4 -4 -10z"/>
<path d="M2116 1242 c-3 -5 1 -9 9 -9 8 0 12 4 9 9 -3 4 -7 8 -9 8 -2 0 -6 -4
-9 -8z"/>
</g>
</svg>
